<svg width="28" height="28" viewBox="0 0 28 28" fill="none" xmlns="http://www.w3.org/2000/svg">
<g clip-path="url(#clip0_609_2393)">
<path d="M23.6031 12.9281C23.5706 12.7871 23.5037 12.6563 23.4082 12.5475C23.3128 12.4387 23.1918 12.3552 23.0562 12.3047L16.7562 9.94215L18.3531 1.92497C18.3898 1.73926 18.3661 1.54667 18.2854 1.37543C18.2047 1.20418 18.0713 1.06329 17.9047 0.973406C17.7364 0.883908 17.5433 0.852543 17.3554 0.884194C17.1674 0.915844 16.9952 1.00873 16.8656 1.14841L4.61559 14.2734C4.51521 14.3775 4.44259 14.5052 4.40437 14.6447C4.36615 14.7842 4.36356 14.9311 4.39684 15.0718C4.43108 15.2121 4.49868 15.342 4.59389 15.4506C4.6891 15.5591 4.80911 15.6431 4.94371 15.6953L11.2437 18.0578L9.64684 26.075C9.61012 26.2607 9.63384 26.4533 9.71454 26.6245C9.79525 26.7957 9.92868 26.9366 10.0953 27.0265C10.2209 27.0899 10.3593 27.1236 10.5 27.125C10.6188 27.1255 10.7365 27.1014 10.8457 27.0544C10.9548 27.0073 11.0531 26.9383 11.1343 26.8515L23.3843 13.7265C23.4847 13.6224 23.5574 13.4947 23.5956 13.3552C23.6338 13.2157 23.6364 13.0688 23.6031 12.9281Z" fill="#438883"/>
</g>
<defs>
<clipPath id="clip0_609_2393">
<rect width="28" height="28" fill="white"/>
</clipPath>
</defs>
</svg>
