<svg width="50" height="50" viewBox="0 0 50 50" fill="none" xmlns="http://www.w3.org/2000/svg">
<rect width="50" height="50" rx="8" fill="#F0F7F5"/>
<g clip-path="url(#clip0_609_2403)">
<path d="M38.125 34.375H36.25V23.5352C36.2506 23.2738 36.1956 23.0153 36.0885 22.7769C35.9814 22.5384 35.8247 22.3255 35.6289 22.1524L26.2539 13.6329C25.9102 13.3174 25.4606 13.1425 24.9941 13.1425C24.5276 13.1425 24.0781 13.3174 23.7344 13.6329L14.3594 22.1524C14.1674 22.328 14.0141 22.5416 13.9092 22.7797C13.8043 23.0177 13.7501 23.275 13.75 23.5352V34.375H11.875C11.6264 34.375 11.3879 34.4738 11.2121 34.6496C11.0363 34.8254 10.9375 35.0639 10.9375 35.3125C10.9375 35.5612 11.0363 35.7996 11.2121 35.9755C11.3879 36.1513 11.6264 36.25 11.875 36.25H38.125C38.3736 36.25 38.6121 36.1513 38.7879 35.9755C38.9637 35.7996 39.0625 35.5612 39.0625 35.3125C39.0625 35.0639 38.9637 34.8254 38.7879 34.6496C38.6121 34.4738 38.3736 34.375 38.125 34.375ZM27.8125 34.375H22.1875V28.75C22.1875 28.5014 22.2863 28.2629 22.4621 28.0871C22.6379 27.9113 22.8764 27.8125 23.125 27.8125H26.875C27.1236 27.8125 27.3621 27.9113 27.5379 28.0871C27.7137 28.2629 27.8125 28.5014 27.8125 28.75V34.375Z" fill="url(#paint0_linear_609_2403)"/>
</g>
<defs>
<linearGradient id="paint0_linear_609_2403" x1="25" y1="13.1425" x2="25" y2="36.25" gradientUnits="userSpaceOnUse">
<stop stop-color="#549994"/>
<stop offset="1" stop-color="#408782"/>
</linearGradient>
<clipPath id="clip0_609_2403">
<rect width="30" height="30" fill="white" transform="translate(10 10)"/>
</clipPath>
</defs>
</svg>
